<svg id="Layer_1" data-name="Layer 1" xmlns="http://www.w3.org/2000/svg" width="64" height="64" viewBox="0 0 64 64"><defs><style>.cls-1{fill:#666;}</style></defs><title>repeat</title><path class="cls-1" d="M59.71,18.29l-6-6A1,1,0,1,0,52.3,13.7L56.59,18H16A12,12,0,0,0,4,30v1a1,1,0,1,0,2,0V30A10,10,0,0,1,16,20H56.59L52.3,24.29a1,1,0,0,0,0,1.41,1,1,0,0,0,.7.3,1,1,0,0,0,.71-0.29l6-6a1,1,0,0,0,.22-0.33,1,1,0,0,0,0-.76A1.27,1.27,0,0,0,59.71,18.29Z"/><path class="cls-1" d="M59,32a1,1,0,0,0-1,1v1A10,10,0,0,1,48,44H7.41l4.29-4.29a1,1,0,0,0-1.41-1.41l-6,6a1,1,0,0,0-.22.33,1,1,0,0,0,.22,1.09l6,6A1.06,1.06,0,0,0,11,52a1,1,0,0,0,.71-0.29,1,1,0,0,0,0-1.41L7.41,46H48A12,12,0,0,0,60,34V33A1,1,0,0,0,59,32Z"/></svg>